<svg width="80" height="68" viewBox="0 0 80 68" fill="none" xmlns="http://www.w3.org/2000/svg">
<path d="M12.6674 33.6599C10.4984 33.6599 8.90719 33.1285 7.89523 32.0657C6.88192 31.0042 6.37527 29.4668 6.37527 27.4575V21.8838C6.37527 19.7595 6.65346 14.1533 7.20983 12.6592C7.76621 11.1664 8.53627 9.98184 9.52135 9.10562C10.5064 8.22941 11.6259 7.69124 12.8811 7.49111V7.27612H1.41895V1.93634H18.6599V7.36266C17.4034 7.56413 16.3417 7.9806 15.4708 8.61207C14.6 9.24354 13.9361 10.0765 13.4805 11.1096C13.0236 12.1426 12.7951 17.1619 12.7951 18.5682V28.2769H16.7758V33.6599H12.6661H12.6674Z" fill="white"/>
<path d="M23.2754 33.6599V1.78894H29.6106V14.8821H29.8672C30.2664 13.7057 30.9652 12.6862 31.9651 11.8249C32.9636 10.9635 34.3478 10.5322 36.1177 10.5322C38.401 10.5322 40.1414 11.3151 41.3402 12.8796C42.5389 14.4454 43.1383 16.6481 43.1383 19.4904V33.6599H36.8031V20.0069C36.8031 18.5709 36.5747 17.4946 36.1177 16.7766C35.6608 16.0585 34.8478 15.7002 33.6772 15.7002C32.9918 15.7002 32.3427 15.8233 31.7299 16.0667C31.1157 16.3114 30.6091 16.6765 30.2099 17.1646C29.8095 17.6528 29.6106 18.2707 29.6106 19.0171V33.6613H23.2754V33.6599Z" fill="white"/>
<path d="M6.80664 66.1975V37.204H13.0813V60.59H24.0624V66.1975H6.80664Z" fill="white"/>
<path d="M28.6869 66.1975V37.204H34.9616V60.59H45.9426V66.1975H28.6855H28.6869Z" fill="white"/>
<path d="M50.5684 66.1975V37.204H57.2153L64.2748 50.7867H64.3568L71.3344 37.204H78.023V66.1975H72.1192V47.1723H71.9956L69.8897 51.4087L64.2748 61.6691L58.7837 51.4506L56.5958 46.8816H56.4721V66.1975H50.5684Z" fill="white"/>
<path d="M55.1355 33.6221C52.8106 33.6221 51.0151 33.0447 49.7505 31.8872C48.4845 30.7311 47.8516 29.0747 47.8516 26.9179C47.8516 25.5671 48.1351 24.411 48.7036 23.4482C49.2707 22.4868 50.0986 21.7472 51.1831 21.2266C52.2676 20.7074 53.5847 20.4464 55.1342 20.4464H61.0232V24.461H55.7927C55.0697 24.461 54.5079 24.6368 54.1074 24.987C53.707 25.3372 53.5067 25.8389 53.5067 26.4879V26.9166C53.5067 27.5399 53.707 28.0213 54.1074 28.3594C54.5079 28.6974 55.0697 28.8664 55.7927 28.8664H57.9618V33.6221H55.1342H55.1355ZM60.5985 33.6221V19.2781C60.5985 18.1612 60.3015 17.2769 59.7075 16.6278C59.1135 15.9788 58.1324 15.6529 56.763 15.6529C55.3936 15.6529 54.4058 15.9328 53.6438 16.4912C52.8818 17.0511 52.2421 17.6676 51.726 18.3424L48.123 15.1458C48.924 13.8464 50.0851 12.7876 51.6091 11.9695C53.1331 11.1515 54.9541 10.7418 57.0721 10.7418C60.1711 10.7418 62.4894 11.4571 64.0255 12.8863C65.5615 14.3156 66.3303 16.4601 66.3303 19.3187V33.6248H60.5972L60.5985 33.6221Z" fill="white"/>
<path d="M74.4286 8.75268C73.1519 8.75268 72.2233 8.4525 71.6427 7.85348C71.0608 7.25446 70.7705 6.51211 70.7705 5.62779V4.68667C70.7705 3.77394 71.0608 3.02483 71.6427 2.43934C72.2233 1.85519 73.1533 1.56177 74.4286 1.56177C75.704 1.56177 76.634 1.85519 77.2145 2.43934C77.7951 3.02483 78.0867 3.77394 78.0867 4.68667V5.62779C78.0867 6.51211 77.7951 7.25446 77.2145 7.85348C76.6326 8.4525 75.704 8.75268 74.4286 8.75268ZM71.2812 33.6221V11.1501H77.5774V33.6234H71.2812V33.6221Z" fill="white"/>
</svg>
