<?xml version="1.0" encoding="UTF-8" standalone="no"?>
<svg
   width="37.896309"
   height="37.883076"
   viewBox="0 0 37.896309 37.883076"
   fill="none"
   version="1.1"
   id="svg3"
   xmlns="http://www.w3.org/2000/svg"
   xmlns:svg="http://www.w3.org/2000/svg">
  <defs
     id="defs3" />
  <path
     d="m 30.582708,31.329177 -1.0192,2.6764 c -0.2152,0.5644 -0.6183,1.0374 -1.1415,1.3392 -0.5232,0.3019 -1.1344,0.4142 -1.7307,0.3179 l -2.8273,-0.4527 c -0.1828,-0.0287 -0.3696,-0.0189 -0.5483,0.029 -0.1787,0.0479 -0.3455,0.1327 -0.4894,0.249 l -2.221,1.8054 c -0.4681,0.3814 -1.0534,0.5897 -1.6572,0.5897 -0.6037,0 -1.1891,-0.2083 -1.6571,-0.5897 l -2.221,-1.8054 c -0.1443,-0.1166 -0.3114,-0.2017 -0.4907,-0.2496 -0.1792,-0.0478 -0.3665,-0.0575 -0.5497,-0.0284 l -2.8272,0.4527 c -0.5963,0.0963 -1.2076,-0.016 -1.73079,-0.3179 -0.5232,-0.3018 -0.92633,-0.7748 -1.14147,-1.3392 l -1.01918,-2.6764 c -0.0662,-0.1724 -0.16776,-0.3291 -0.29815,-0.46 -0.13039,-0.1308 -0.28673,-0.2329 -0.45896,-0.2997 l -2.67634,-1.0192 c -0.56471,-0.2147 -1.03801,-0.6178 -1.33993,-1.1411 -0.30193,-0.5233 -0.41398,-1.1348 -0.31723,-1.7311 l 0.45268,-2.8273 c 0.0306,-0.1818 0.02286,-0.3681 -0.02272,-0.5468 -0.04559,-0.1787 -0.12802,-0.3459 -0.242,-0.4909 l -1.81864399,-2.221 C 0.20827101,20.123977 0,19.538677 0,18.934877 c 0,-0.6038 0.20827101,-1.1891 0.58967401,-1.6571 l 1.80540399,-2.221 c 0.11398,-0.145 0.19641,-0.3122 0.242,-0.4909 0.04559,-0.1787 0.05333,-0.365 0.02272,-0.5469 l -0.43944,-2.8272 c -0.09675,-0.5963 0.0153,-1.2078 0.31723,-1.7311 0.30192,-0.52334 0.77522,-0.9264 1.33993,-1.14112 l 2.67634,-1.02183 c 0.17264,-0.06534 0.32943,-0.16663 0.45995,-0.29715 0.13053,-0.13053 0.23182,-0.28731 0.29716,-0.45995 l 1.02182,-2.67634 c 0.21473,-0.56472 0.61778,-1.03801 1.14109,-1.33994 0.52333,-0.30192 1.13483,-0.41397 1.73113,-0.31722 l 2.8246,0.45267 c 0.1819,0.03061 0.3681,0.02287 0.5468,-0.02272 0.1787,-0.04559 0.3459,-0.12801 0.4909,-0.242 l 2.221,-1.8054 C 17.756408,0.208271 18.341708,0 18.945508,0 c 0.6038,0 1.1891,0.208271 1.6571,0.589677 l 2.2211,1.8054 c 0.1449,0.11399 0.3122,0.19641 0.4909,0.242 0.1787,0.04559 0.3649,0.05333 0.5468,0.02272 l 2.8272,-0.45267 c 0.5964,-0.09675 1.2078,0.0153 1.7312,0.31722 0.5233,0.30193 0.9263,0.77522 1.141,1.33994 l 1.0192,2.67634 c 0.0668,0.17222 0.1689,0.32856 0.2998,0.45896 0.1308,0.13039 0.2875,0.23195 0.46,0.29814 l 2.6763,1.02183 c 0.5644,0.21514 1.0374,0.61828 1.3393,1.14152 0.3018,0.5231 0.4141,1.1344 0.3179,1.7307 l -0.4501,2.8246 c -0.0287,0.1828 -0.0189,0.3696 0.029,0.5483 0.0479,0.1788 0.1327,0.3455 0.249,0.4894 l 1.8054,2.221 c 0.3814,0.4681 0.5897,1.0534 0.5897,1.6572 0,0.6038 -0.2083,1.1891 -0.5897,1.6571 l -1.8054,2.2211 c -0.1163,0.1439 -0.2011,0.3106 -0.249,0.4894 -0.0479,0.1787 -0.0577,0.3655 -0.029,0.5483 l 0.4527,2.8272 c 0.0963,0.5963 -0.016,1.2076 -0.3179,1.7308 -0.3018,0.5232 -0.7748,0.9263 -1.3392,1.1414 l -2.6764,1.0192 c -0.173,0.0668 -0.33,0.1692 -0.4609,0.3005 -0.1308,0.1313 -0.2327,0.2887 -0.2988,0.4619 z"
     fill="#58cc02"
     id="path2"
     style="display:inline" />
  <path
     d="m 26.281308,16.397577 c 0.6938,1.5416 0.8286,3.2767 0.3813,4.907 -0.4473,1.6302 -1.4489,3.0536 -2.8323,4.0252 -1.3834,0.9716 -3.0622,1.4306 -4.7475,1.2982 -1.6853,-0.1325 -3.2717,-0.8482 -4.4864,-2.024 -1.2828,0.4689 -2.6798,0.5269 -3.9971,0.1659 -1.31735,-0.3609 -2.48963,-1.123 -3.3542,-2.1805 -0.08548,-0.1055 -0.14477,-0.2297 -0.17304,-0.3625 -0.02826,-0.1328 -0.02469,-0.2704 0.01042,-0.4016 0.03512,-0.1311 0.10078,-0.2521 0.19162,-0.3531 0.09083,-0.1009 0.20427,-0.1789 0.33103,-0.2275 l 3.51817,-1.3607 -1.78689,-2.5493 c -0.23164,-0.3317 -0.37768,-0.7155 -0.4251,-1.1173 -0.04743,-0.4018 0.00522,-0.8091 0.15326,-1.1856 0.14804,-0.3766 0.38689,-0.7106 0.69526,-0.9725 0.30837,-0.2619 0.67677,-0.4435 1.07227,-0.5286 2.0119,-0.4289 3.3055,-0.8445 3.8808,-1.2469 0.5753,-0.4024 1.3942,-1.4612 2.4566,-3.17665 0.2143,-0.34413 0.5107,-0.62974 0.8625,-0.83124 0.3518,-0.20151 0.748,-0.31261 1.1533,-0.32336 0.4053,-0.01076 0.8069,0.07917 1.1689,0.26173 0.362,0.18256 0.673,0.45205 0.9053,0.78434 l 1.7763,2.53078 2.4407,-2.80874 c 0.0889,-0.10265 0.2009,-0.18279 0.3267,-0.23387 0.1258,-0.05109 0.2619,-0.07166 0.3972,-0.06004 0.1353,0.01162 0.266,0.0551 0.3812,0.12689 0.1153,0.07179 0.2119,0.16984 0.2821,0.28614 0.6947,1.16582 1.0116,2.51812 0.9074,3.87132 -0.1043,1.3531 -0.6247,2.6408 -1.4898,3.6865 z m -6.3057,12.0501 -1.8875,-0.2647 c -0.3177,-0.046 -0.6406,0.0361 -0.8978,0.2283 -0.2571,0.1921 -0.4275,0.4785 -0.4734,0.7962 -0.046,0.3177 0.0361,0.6406 0.2282,0.8978 0.1921,0.2572 0.4785,0.4275 0.7962,0.4735 l 1.8875,0.2647 c 0.318,0.0442 0.6406,-0.0397 0.8968,-0.2333 0.2562,-0.1936 0.4249,-0.4811 0.4692,-0.7991 0.0442,-0.3181 -0.0397,-0.6407 -0.2333,-0.8968 -0.1937,-0.2562 -0.4811,-0.425 -0.7991,-0.4692 z m 9.9191,-8.4711 c -0.3134,-0.0667 -0.6406,-0.0064 -0.9096,0.1678 -0.269,0.1742 -0.4579,0.4481 -0.5252,0.7614 l -0.3944,1.8769 c -0.0383,0.1575 -0.0446,0.321 -0.0184,0.4809 0.0261,0.16 0.0841,0.313 0.1705,0.4501 0.0865,0.1371 0.1995,0.2554 0.3326,0.348 0.133,0.0925 0.2833,0.1574 0.4419,0.1907 0.1585,0.0334 0.3222,0.0345 0.4812,0.0034 0.1591,-0.0311 0.3103,-0.0939 0.4446,-0.1845 0.1343,-0.0907 0.249,-0.2074 0.3374,-0.3433 0.0883,-0.1359 0.1484,-0.2881 0.1768,-0.4476 l 0.3944,-1.8531 c 0.0676,-0.3149 0.0074,-0.6437 -0.1673,-0.9142 -0.1747,-0.2705 -0.4497,-0.4606 -0.7645,-0.5285 z"
     fill="#ffffff"
     id="path3"
     style="display:inline" />
</svg>
