<?xml version="1.0" encoding="UTF-8" standalone="no"?>
<svg
   width="49"
   height="68"
   fill="none"
   version="1.1"
   id="svg38"
   sodipodi:docname="พระเกี้ยว.645043ab.svg"
   inkscape:version="1.2 (dc2aedaf03, 2022-05-15)"
   xmlns:inkscape="http://www.inkscape.org/namespaces/inkscape"
   xmlns:sodipodi="http://sodipodi.sourceforge.net/DTD/sodipodi-0.dtd"
   xmlns="http://www.w3.org/2000/svg"
   xmlns:svg="http://www.w3.org/2000/svg">
  <defs
     id="defs42" />
  <sodipodi:namedview
     id="namedview40"
     pagecolor="#ffffff"
     bordercolor="#111111"
     borderopacity="1"
     inkscape:showpageshadow="0"
     inkscape:pageopacity="0"
     inkscape:pagecheckerboard="1"
     inkscape:deskcolor="#d1d1d1"
     showgrid="false"
     inkscape:zoom="10.752183"
     inkscape:cx="7.6728608"
     inkscape:cy="19.158901"
     inkscape:window-width="1366"
     inkscape:window-height="697"
     inkscape:window-x="-8"
     inkscape:window-y="-8"
     inkscape:window-maximized="1"
     inkscape:current-layer="svg38" />
  <g
     id="g343"
     transform="translate(0.10115137,0.1845)">
    <path
       d="m 23.989,0.296 c -0.32,0.33 -0.32,-0.024 0,3.971 0.142,1.774 0.271,2.353 0.39,1.762 0.023,-0.154 0.118,-1.218 0.189,-2.353 0.07,-1.134 0.154,-2.281 0.189,-2.553 0.06,-0.39 0.012,-0.544 -0.213,-0.804 L 24.272,0 Z m -3.086,0.652 c -0.059,0.13 -0.118,0.331 -0.118,0.45 0,0.212 2.376,4.81 2.613,5.047 0.224,0.237 0.082,-0.284 -0.757,-2.813 -0.721,-2.14 -0.91,-2.601 -1.147,-2.743 -0.39,-0.213 -0.449,-0.2 -0.59,0.06 z M 27.038,0.899 C 26.778,1.041 26.613,1.431 25.88,3.677 25.407,5.107 25.04,6.348 25.064,6.419 25.1,6.502 25.714,5.438 26.447,4.067 27.641,1.797 27.76,1.525 27.665,1.182 27.559,0.722 27.452,0.674 27.038,0.899 Z M 17.83,2.731 c 0,0.485 0.035,0.52 2.01,2.034 0.224,0.177 0.969,0.744 1.642,1.265 0.674,0.531 1.289,0.957 1.348,0.957 0.118,0 0.06,-0.083 -0.745,-1.017 C 21.861,5.71 21.411,5.178 21.08,4.8 18.94,2.294 18.905,2.259 18.35,2.259 h -0.52 z m 10.154,1.444 c -2.411,2.766 -2.364,2.719 -2.293,2.79 0.047,0.059 0.957,-0.615 3.475,-2.577 1.454,-1.123 1.549,-1.23 1.549,-1.714 0,-0.414 0,-0.414 -0.532,-0.414 h -0.52 z M 15.028,4.516 c -0.45,0.13 -0.461,0.237 -0.165,0.816 0.177,0.33 0.33,0.425 0.792,0.544 0.567,0.13 4.397,1.146 6.017,1.595 0.98,0.26 0.886,0.249 0.886,0.13 0,-0.059 -0.84,-0.484 -1.856,-0.957 C 19.674,6.159 18.385,5.556 17.83,5.296 15.737,4.316 15.737,4.316 15.028,4.516 Z M 31.956,4.73 c -0.78,0.355 -1.702,0.78 -2.955,1.372 -0.45,0.213 -1.324,0.615 -1.915,0.887 -0.603,0.283 -1.1,0.555 -1.1,0.602 0,0.13 -0.094,0.142 0.946,-0.141 0.792,-0.213 1.998,-0.544 5.414,-1.443 0.615,-0.165 1.123,-0.319 1.147,-0.342 0.07,-0.071 0.413,-0.958 0.39,-0.982 C 33.776,4.601 33.008,4.388 32.854,4.4 c -0.106,0 -0.508,0.153 -0.898,0.33 z m -8.038,2.6 c -0.65,0.272 -0.769,1.005 -0.249,1.537 L 24,9.21 23.858,10.912 a 63.392,63.392 0 0 1 -0.602,5.036 c -0.119,0.697 -0.119,0.91 0.011,1.147 0.213,0.39 0.284,0.378 0.58,-0.119 0.307,-0.52 0.472,-0.52 0.815,0 0.308,0.485 0.367,0.497 0.639,0.13 0.2,-0.272 0.189,-0.342 -0.024,-1.513 A 43.352,43.352 0 0 1 24.615,10.475 L 24.532,9.163 24.91,8.796 C 25.348,8.359 25.372,8.051 25.017,7.649 24.709,7.307 24.272,7.189 23.917,7.33 Z m -12.153,0.744 -0.449,0.39 0.45,0.438 0.448,0.437 5.072,-0.46 c 2.79,-0.26 5.095,-0.497 5.13,-0.533 C 22.452,8.323 22.404,8.264 22.31,8.228 22.109,8.158 16.707,7.838 14.106,7.755 l -1.892,-0.07 -0.449,0.39 z M 33.493,7.779 c -0.32,0.012 -2.08,0.118 -3.901,0.224 -1.82,0.095 -3.357,0.237 -3.416,0.296 -0.071,0.06 -0.095,0.106 -0.06,0.106 0.024,0 2.341,0.213 5.13,0.473 L 36.33,9.339 36.744,8.937 37.146,8.524 36.744,8.11 36.342,7.696 35.219,7.72 a 44.24,44.24 0 0 0 -1.726,0.059 z m -11.29,1.183 c -0.094,0.036 -0.33,0.13 -0.532,0.225 -0.189,0.083 -1.63,0.58 -3.191,1.1 -1.56,0.52 -4.291,1.442 -6.076,2.044 l -3.251,1.1 -0.379,0.65 c -0.212,0.355 -0.342,0.686 -0.307,0.721 0.047,0.048 0.355,0.201 0.686,0.331 l 0.59,0.26 5.557,-2.73 c 3.05,-1.502 5.934,-2.92 6.407,-3.157 0.46,-0.224 0.851,-0.46 0.851,-0.52 0,-0.118 -0.083,-0.118 -0.355,-0.024 z m 3.783,0.024 c 0,0.107 0.721,0.473 7.98,4.02 2.411,1.182 4.468,2.198 4.586,2.27 0.166,0.094 0.379,0.058 0.863,-0.143 0.355,-0.153 0.639,-0.319 0.639,-0.366 0,-0.237 -0.603,-1.277 -0.792,-1.371 -0.119,-0.06 -2.873,-1.005 -6.124,-2.093 A 567.954,567.954 0 0 1 26.66,9.104 C 26.01,8.844 25.986,8.844 25.986,8.986 Z m -4.315,1.63 c -0.65,0.615 -2.186,2.104 -3.428,3.322 -1.23,1.206 -3.357,3.286 -4.728,4.622 a 983.037,983.037 0 0 0 -4.528,4.433 l -2.033,2.01 v 2.092 l 1.04,-0.07 c 0.958,-0.072 1.052,-0.107 1.324,-0.438 l 0.899,-1.088 a 481.4,481.4 0 0 0 3.416,-4.243 c 0.2,-0.249 0.52,-0.65 0.71,-0.899 0.2,-0.248 1.843,-2.305 3.664,-4.563 1.82,-2.258 3.44,-4.28 3.605,-4.492 l 0.816,-1.052 c 0.284,-0.367 0.496,-0.686 0.473,-0.71 -0.024,-0.023 -0.58,0.45 -1.23,1.076 z M 25.513,9.53 c 0,0.035 0.213,0.319 0.461,0.626 a 489.53,489.53 0 0 1 4.008,4.918 c 0.307,0.378 0.945,1.17 1.418,1.75 0.473,0.579 1.43,1.749 2.128,2.612 a 252.102,252.102 0 0 0 3.097,3.806 c 0.426,0.52 0.887,1.088 1.005,1.253 0.13,0.166 0.627,0.792 1.111,1.395 l 0.887,1.076 h 1.962 v -1.832 l -2.707,-2.66 -7.932,-7.802 C 28.079,11.847 25.679,9.506 25.62,9.494 25.56,9.471 25.513,9.482 25.513,9.53 Z"
       fill="#f687b3"
       id="path2" />
    <path
       d="m 22.925,10.616 c -0.213,0.449 -0.887,1.737 -1.49,2.872 a 271.182,271.182 0 0 0 -2.01,3.842 c -0.508,0.97 -1.43,2.754 -2.068,3.96 a 2148.42,2148.42 0 0 1 -2.128,4.079 c -1.36,2.624 -3.038,5.827 -3.322,6.324 -0.13,0.224 -0.354,0.65 -0.484,0.946 -0.142,0.295 -0.958,1.88 -1.833,3.522 l -1.584,2.991 0.26,1.123 c 0.142,0.615 0.296,1.135 0.343,1.17 0.118,0.071 2.033,-0.756 2.27,-0.993 0.189,-0.177 0.46,-0.792 1.513,-3.44 a 247.5,247.5 0 0 1 0.946,-2.305 c 0.732,-1.761 1.832,-4.445 2.99,-7.27 0.355,-0.875 0.899,-2.21 1.206,-2.955 0.308,-0.745 0.71,-1.75 0.899,-2.223 0.189,-0.46 0.437,-1.075 0.567,-1.359 0.118,-0.272 0.567,-1.348 0.993,-2.388 0.71,-1.75 2.79,-6.785 3.192,-7.743 0.496,-1.194 0.307,-1.3 -0.26,-0.153 z M 25.04,9.861 c 0,0.106 0.296,0.875 0.887,2.27 0.272,0.65 0.757,1.797 1.064,2.541 0.308,0.745 0.71,1.703 0.887,2.128 0.33,0.745 1.761,4.161 2.541,6.088 0.213,0.52 0.686,1.631 1.04,2.482 0.615,1.466 1.608,3.83 2.767,6.62 0.567,1.372 0.827,1.998 2.388,5.734 l 1.075,2.553 c 0.107,0.26 2.01,1.159 2.152,1.017 0.035,-0.047 0.236,-0.485 0.45,-0.981 l 0.377,-0.91 -0.886,-1.691 C 38.801,35.785 35.822,30.134 33.138,25.016 32.145,23.125 31.034,21.032 30.679,20.346 28.315,15.783 25.265,10.015 25.147,9.885 25.087,9.825 25.041,9.814 25.041,9.861 Z m -1.063,7.552 c -0.13,0.213 -0.32,0.662 -0.426,1.005 -0.154,0.544 -0.154,0.65 0,1.029 0.166,0.402 0.201,0.425 0.769,0.425 0.543,0 0.59,-0.023 0.709,-0.366 0.07,-0.213 0.13,-0.485 0.13,-0.627 0,-0.295 -0.627,-1.667 -0.816,-1.773 -0.07,-0.047 -0.236,0.095 -0.366,0.307 z m 1.43,0.023 c -0.177,0.213 -0.177,0.473 -0.023,1.088 0.082,0.32 0.082,0.615 0.011,0.886 -0.142,0.497 -0.153,0.462 0.06,0.462 0.307,0 0.449,-0.875 0.295,-1.785 -0.083,-0.45 -0.154,-0.816 -0.177,-0.816 a 0.645,0.645 0 0 0 -0.166,0.165 z m -2.435,0.072 c -0.06,0.083 -0.118,0.544 -0.154,1.005 -0.059,0.886 0.083,1.36 0.402,1.36 0.142,0 0.154,-0.048 0.036,-0.25 -0.13,-0.247 -0.095,-1.063 0.07,-1.583 0.095,-0.307 -0.212,-0.757 -0.354,-0.532 z m -0.189,3.003 c -0.497,0.437 -0.52,0.686 -0.083,1.182 l 0.378,0.426 h 2.353 l 0.39,-0.426 c 0.224,-0.225 0.402,-0.496 0.402,-0.58 0,-0.094 -0.177,-0.33 -0.378,-0.52 -0.379,-0.354 -0.414,-0.366 -1.573,-0.366 -1.064,0.012 -1.217,0.036 -1.49,0.284 z m 0.33,0.497 c 0.084,0.224 -0.236,0.579 -0.425,0.472 -0.142,-0.094 -0.177,-0.46 -0.047,-0.579 0.142,-0.142 0.39,-0.083 0.473,0.107 z m 1.502,0 c 0.083,0.224 -0.118,0.52 -0.343,0.52 -0.224,0 -0.425,-0.296 -0.342,-0.52 0.035,-0.107 0.189,-0.19 0.342,-0.19 0.154,0 0.308,0.083 0.343,0.19 z m 1.348,0.13 c -0.048,0.401 -0.39,0.508 -0.509,0.165 -0.094,-0.32 0.012,-0.485 0.308,-0.485 0.189,0 0.236,0.071 0.2,0.32 z m -2.861,1.36 c -0.024,0.083 -0.13,0.58 -0.248,1.1 -0.107,0.52 -0.438,1.655 -0.721,2.53 -0.284,0.874 -0.52,1.678 -0.52,1.784 0,0.213 0.425,0.828 0.567,0.828 0.047,0 0.189,-0.19 0.307,-0.414 0.13,-0.224 0.296,-0.414 0.39,-0.414 0.083,0 0.249,0.19 0.355,0.414 0.106,0.225 0.225,0.414 0.26,0.414 0.035,0 0.201,-0.236 0.355,-0.532 0.33,-0.615 0.52,-0.674 0.72,-0.177 0.249,0.603 0.415,0.65 0.698,0.177 0.13,-0.225 0.284,-0.414 0.343,-0.414 0.047,0 0.248,0.237 0.438,0.532 l 0.33,0.532 0.272,-0.473 0.272,-0.484 -0.484,-1.502 c -0.58,-1.797 -0.91,-3.132 -0.922,-3.664 V 22.356 H 24.33 c -0.85,0 -1.205,0.048 -1.229,0.142 z"
       fill="#f687b3"
       id="path4" />
    <path
       d="m 23.67,29.163 c -0.462,0.733 -0.568,1.017 -0.568,1.454 l -0.012,0.544 h 2.246 l 0.036,-0.45 c 0.023,-0.319 -0.071,-0.65 -0.343,-1.181 a 51.391,51.391 0 0 1 -0.508,-0.993 c -0.071,-0.154 -0.166,-0.272 -0.213,-0.272 -0.047,0 -0.331,0.402 -0.639,0.898 z m 1.714,-0.519 c -0.178,0.355 -0.178,0.426 0.023,0.887 0.118,0.283 0.237,0.508 0.272,0.508 0.036,0 0.154,-0.166 0.26,-0.367 0.201,-0.402 0.154,-0.733 -0.165,-1.146 l -0.213,-0.272 z m -2.755,-10e-4 c -0.225,0.319 -0.237,0.567 -0.047,0.981 0.177,0.39 0.236,0.378 0.496,-0.106 0.201,-0.367 0.201,-0.426 0.024,-0.769 -0.237,-0.437 -0.248,-0.437 -0.473,-0.106 z m -1.3,0.569 c -0.142,1.253 0.094,2.01 0.626,2.01 0.65,0 0.674,-0.922 0.048,-1.986 -0.237,-0.402 -0.473,-0.733 -0.52,-0.733 -0.036,0 -0.107,0.32 -0.154,0.71 z m 5.095,0.248 c -0.248,0.462 -0.438,0.946 -0.438,1.076 0,0.414 0.225,0.686 0.58,0.686 0.271,0 0.366,-0.083 0.496,-0.378 0.248,-0.603 0.166,-2.223 -0.118,-2.223 -0.047,0 -0.284,0.379 -0.52,0.84 z m -7.814,0.342 c -0.095,0.237 -0.165,1.655 -0.083,1.655 0.036,0 0.201,-0.13 0.378,-0.307 l 0.308,-0.296 0.39,0.615 c 0.225,0.33 0.461,0.875 0.556,1.206 0.082,0.33 0.26,0.709 0.39,0.839 0.2,0.201 0.272,0.213 0.508,0.083 0.32,-0.178 0.591,-0.568 0.497,-0.721 -0.048,-0.071 -0.296,-0.118 -0.58,-0.118 -0.484,0 -0.496,-0.012 -0.626,-0.509 -0.083,-0.272 -0.402,-0.875 -0.733,-1.324 -0.981,-1.383 -0.934,-1.324 -1.005,-1.123 z m 11.065,0.024 a 0.491,0.491 0 0 0 -0.142,0.295 c 0,0.083 -0.178,0.355 -0.402,0.591 -0.426,0.485 -0.816,1.194 -0.946,1.714 -0.07,0.296 -0.13,0.331 -0.615,0.331 -0.366,0 -0.543,0.06 -0.602,0.19 -0.083,0.224 0.401,0.756 0.685,0.756 0.272,0 0.639,-0.52 0.816,-1.17 a 3.13,3.13 0 0 1 0.745,-1.395 l 0.236,-0.26 0.225,0.284 c 0.413,0.532 0.437,0.473 0.354,-1.159 -0.023,-0.343 -0.13,-0.402 -0.354,-0.177 z m -8.228,2.057 c -0.2,0.52 -0.225,0.52 2.825,0.52 1.975,0 2.897,-0.036 2.897,-0.13 0,-0.071 -0.06,-0.225 -0.119,-0.355 -0.118,-0.213 -0.283,-0.225 -2.825,-0.225 -2.352,0 -2.719,0.024 -2.778,0.19 z m -1.997,1.183 c -0.155,0.296 -0.155,0.379 -0.013,0.58 0.213,0.295 0.213,0.59 -0.023,0.945 -0.178,0.272 -0.178,0.32 0,0.591 0.106,0.166 0.248,0.296 0.307,0.296 0.142,0 0.402,-0.473 0.307,-0.556 -0.035,-0.047 0.036,-0.142 0.166,-0.236 0.449,-0.32 0.496,-0.58 0.177,-0.887 -0.165,-0.142 -0.295,-0.33 -0.295,-0.402 0,-0.082 -0.095,-0.26 -0.225,-0.413 l -0.213,-0.272 -0.189,0.354 z m 2.316,0.33 c -0.343,0.355 -0.626,0.698 -0.626,0.769 0,0.07 0.165,0.248 0.366,0.39 0.19,0.154 0.473,0.45 0.603,0.662 l 0.236,0.39 0.284,-0.26 c 0.154,-0.142 0.284,-0.331 0.284,-0.402 0,-0.083 0.13,-0.201 0.283,-0.272 0.166,-0.07 0.355,-0.236 0.414,-0.366 0.118,-0.201 0.071,-0.284 -0.284,-0.568 -0.224,-0.177 -0.413,-0.39 -0.413,-0.46 0,-0.12 -0.379,-0.521 -0.485,-0.521 a 9.778,9.778 0 0 0 -0.662,0.638 z m 1.029,0.71 c 0,0.236 -0.32,0.46 -0.533,0.378 -0.212,-0.071 -0.236,-0.438 -0.035,-0.638 0.165,-0.166 0.567,0.023 0.567,0.26 z m 0.591,-1.123 c 0,0.213 0.72,0.957 0.922,0.957 0.059,0 0.272,-0.177 0.484,-0.402 0.58,-0.602 0.45,-0.78 -0.579,-0.78 -0.733,0 -0.827,0.024 -0.827,0.225 z m 2.376,0.082 c -0.142,0.177 -0.249,0.343 -0.249,0.39 0,0.036 -0.165,0.178 -0.354,0.308 -0.45,0.295 -0.45,0.413 0.035,0.863 0.201,0.189 0.509,0.508 0.662,0.685 l 0.284,0.343 0.189,-0.284 a 7.27,7.27 0 0 1 0.65,-0.733 c 0.497,-0.473 0.509,-0.72 0.047,-0.945 -0.153,-0.071 -0.378,-0.296 -0.508,-0.497 -0.319,-0.485 -0.46,-0.508 -0.756,-0.13 z m 0.697,1.123 c 0,0.272 -0.177,0.378 -0.473,0.284 -0.295,-0.095 -0.307,-0.485 -0.035,-0.639 0.26,-0.141 0.508,0.036 0.508,0.355 z"
       fill="#f687b3"
       id="path6" />
    <path
       d="m 28.622,32.89 a 0.635,0.635 0 0 0 -0.153,0.378 c 0,0.13 -0.13,0.33 -0.296,0.46 -0.165,0.13 -0.295,0.308 -0.295,0.403 0,0.094 0.13,0.307 0.295,0.472 0.166,0.166 0.296,0.39 0.296,0.52 0,0.379 0.26,0.414 0.555,0.072 0.249,-0.296 0.26,-0.343 0.095,-0.58 -0.225,-0.319 -0.225,-0.674 -0.012,-0.98 0.154,-0.214 0.142,-0.273 -0.082,-0.568 -0.213,-0.26 -0.284,-0.296 -0.402,-0.178 z m -9.658,1.004 c -0.13,0.33 -0.07,0.638 0.107,0.638 0.189,0 0.366,-0.508 0.236,-0.698 -0.106,-0.189 -0.26,-0.153 -0.343,0.06 z"
       fill="#f687b3"
       id="path8" />
    <path
       d="m 29.237,33.834 c -0.106,0.154 0.036,0.698 0.166,0.698 0.142,0 0.213,-0.343 0.154,-0.627 -0.06,-0.224 -0.213,-0.26 -0.32,-0.07 z m -12.034,0.827 c -0.118,0.922 -0.095,1.644 0.024,1.644 0.07,0 0.212,-0.166 0.33,-0.355 0.107,-0.201 0.237,-0.355 0.285,-0.355 0.189,0 0.815,0.863 1.182,1.608 0.26,0.52 0.413,0.733 0.437,0.591 0.07,-0.32 -0.603,-1.584 -1.206,-2.293 -0.295,-0.355 -0.544,-0.698 -0.544,-0.769 0,-0.082 -0.106,-0.271 -0.224,-0.425 l -0.213,-0.272 -0.07,0.627 z m 13.748,-0.225 c -0.13,0.212 -0.236,0.437 -0.236,0.508 -0.012,0.06 -0.225,0.331 -0.485,0.591 -0.496,0.497 -1.005,1.454 -1.135,2.093 -0.094,0.52 0.083,0.342 0.379,-0.39 0.248,-0.627 0.98,-1.632 1.194,-1.644 0.059,0 0.236,0.154 0.378,0.355 0.153,0.189 0.307,0.355 0.354,0.355 0.048,0 0.071,-0.355 0.048,-0.804 A 30.948,30.948 0 0 1 31.4,34.377 c -0.011,-0.426 -0.165,-0.402 -0.449,0.059 z m -7.187,0.368 c -0.567,0.58 -0.508,0.674 0.45,0.674 0.72,0 0.827,-0.024 0.827,-0.213 0,-0.224 -0.58,-0.851 -0.78,-0.851 -0.072,0 -0.284,0.177 -0.497,0.39 z m -3.334,0.082 c -0.378,0.532 -0.248,0.71 0.532,0.71 0.544,0 0.65,-0.036 0.65,-0.214 0,-0.236 -0.579,-0.85 -0.791,-0.85 -0.083,0 -0.249,0.165 -0.39,0.354 z m 6.68,0.012 c -0.166,0.201 -0.284,0.437 -0.26,0.508 0.058,0.166 1.264,0.237 1.418,0.083 0.094,-0.094 0.011,-0.248 -0.272,-0.544 -0.225,-0.224 -0.438,-0.413 -0.485,-0.413 -0.047,0 -0.224,0.165 -0.402,0.366 z m -1.266,1.028 c -0.212,0.024 -0.33,0.107 -0.33,0.237 0,0.106 -0.06,0.72 -0.119,1.371 -0.13,1.36 -0.035,1.714 0.284,1.052 0.26,-0.532 0.686,-2.541 0.567,-2.636 -0.047,-0.036 -0.224,-0.047 -0.402,-0.024 z m 0.876,0.059 c -0.26,0.307 -0.296,1.088 -0.072,1.513 0.107,0.225 0.225,0.343 0.249,0.284 0.165,-0.52 0.46,-1.844 0.413,-1.891 -0.118,-0.119 -0.473,-0.06 -0.59,0.094 z m 1.075,-0.06 c -0.177,0.106 -0.508,1.454 -0.508,2.045 0,0.236 0.07,0.485 0.153,0.556 0.13,0.106 0.19,0.011 0.308,-0.485 0.094,-0.343 0.283,-0.934 0.437,-1.312 0.154,-0.39 0.284,-0.745 0.284,-0.804 0,-0.118 -0.485,-0.118 -0.674,0 z m -7.471,0.605 c 0.118,0.33 0.307,0.945 0.414,1.371 0.189,0.757 0.2,0.768 0.425,0.567 0.296,-0.26 0.248,-0.827 -0.142,-1.844 -0.224,-0.602 -0.283,-0.674 -0.59,-0.674 h -0.332 z m 1.099,0.305 c 0.142,0.485 0.272,0.887 0.308,0.887 0.035,-0.012 0.153,-0.13 0.26,-0.284 0.189,-0.26 0.189,-0.33 0.023,-0.886 -0.153,-0.544 -0.212,-0.603 -0.508,-0.603 h -0.331 z m 0.827,-0.707 c 0.036,0.095 0.154,0.639 0.249,1.194 0.19,1.017 0.556,1.832 0.697,1.596 0.083,-0.118 -0.141,-2.719 -0.248,-2.884 -0.023,-0.048 -0.213,-0.083 -0.414,-0.083 -0.271,0 -0.342,0.047 -0.283,0.177 z m 1.088,0.317 c 0.036,0.284 0.095,0.828 0.142,1.218 l 0.083,0.71 0.272,-0.426 c 0.2,-0.331 0.26,-0.603 0.26,-1.218 v -0.78 h -0.828 z m 1.112,0.285 c 0,0.721 0.248,1.466 0.484,1.466 0.036,0 0.119,-0.39 0.154,-0.863 0.047,-0.46 0.118,-0.97 0.154,-1.123 0.059,-0.236 0.011,-0.26 -0.367,-0.26 H 24.45 Z m -6.609,1.655 c -0.638,1.005 -0.626,1.395 0.012,1.442 0.379,0.035 0.461,-0.012 0.615,-0.32 0.225,-0.425 0.236,-1.264 0.035,-1.642 -0.153,-0.26 -0.165,-0.237 -0.662,0.52 z m 12.247,-0.532 c -0.319,0.497 -0.343,0.852 -0.094,1.443 0.236,0.555 0.26,0.567 0.685,0.532 0.39,-0.036 0.45,-0.083 0.485,-0.367 0.024,-0.189 -0.06,-0.46 -0.225,-0.685 a 8.475,8.475 0 0 1 -0.46,-0.78 L 30.277,37.57 Z m -10.722,0.58 c -0.343,0.402 -0.508,0.721 -0.52,0.981 l -0.012,0.378 h 1.656 l 0.036,-0.425 c 0.035,-0.426 -0.378,-1.525 -0.568,-1.525 -0.059,0 -0.319,0.272 -0.59,0.591 z m 2.128,0.011 c -0.485,0.615 -0.674,1.064 -0.532,1.277 0.036,0.071 0.461,0.13 0.958,0.13 0.933,0 0.945,-0.012 0.874,-0.65 -0.023,-0.296 -0.59,-1.36 -0.72,-1.36 -0.06,0 -0.32,0.272 -0.58,0.603 z m 2.317,-0.035 c -0.496,0.674 -0.71,1.206 -0.567,1.347 0.059,0.06 0.555,0.095 1.1,0.071 0.98,-0.035 0.992,-0.035 0.957,-0.33 -0.036,-0.296 -0.84,-1.644 -0.993,-1.656 -0.036,0 -0.26,0.26 -0.497,0.568 z m 2.187,0.189 c -0.567,1.1 -0.485,1.253 0.65,1.253 1.017,0 1.147,-0.118 0.84,-0.768 -0.201,-0.414 -0.875,-1.241 -1.029,-1.241 -0.047,0 -0.26,0.342 -0.46,0.756 z m 2.246,-0.188 c -0.165,0.343 -0.248,0.733 -0.224,0.98 l 0.035,0.403 0.804,0.035 c 0.91,0.036 1.028,-0.059 0.757,-0.709 -0.178,-0.414 -0.863,-1.277 -1.017,-1.277 -0.047,0 -0.213,0.26 -0.355,0.568 z m -11.36,1.855 c 0,0.154 0.898,0.178 7.33,0.178 6.43,0 7.328,-0.024 7.328,-0.178 0,-0.153 -0.898,-0.177 -7.329,-0.177 -6.43,0 -7.33,0.024 -7.33,0.177 z m -1.064,0.59 c 0,0.153 1.028,0.177 8.511,0.177 7.483,0 8.512,-0.024 8.512,-0.177 0,-0.154 -1.029,-0.178 -8.512,-0.178 -7.483,0 -8.511,0.024 -8.511,0.178 z m -0.544,0.544 c -0.094,0.165 0.284,0.71 0.544,0.78 0.118,0.035 0.201,0.118 0.166,0.19 -0.071,0.2 0.39,0.91 0.59,0.91 0.202,0 0.78,-0.663 0.78,-0.887 0,-0.083 0.13,-0.19 0.296,-0.225 0.308,-0.083 0.721,-0.58 0.615,-0.745 -0.035,-0.047 -0.248,-0.094 -0.496,-0.094 -0.331,0.012 -0.461,0.07 -0.568,0.295 -0.2,0.402 -0.91,0.426 -1.087,0.024 -0.06,-0.142 -0.166,-0.26 -0.237,-0.272 A 2.09,2.09 0 0 1 15.56,41.328 c -0.118,-0.024 -0.248,0.012 -0.284,0.07 z"
       fill="#f687b3"
       id="path10" />
    <path
       d="m 16.411,41.388 c -0.154,0.095 -0.154,0.13 0,0.295 0.166,0.154 0.225,0.154 0.402,0.024 0.39,-0.284 0.012,-0.58 -0.402,-0.32 z m 3.429,0.059 c 0,0.106 0.13,0.32 0.295,0.473 0.153,0.165 0.366,0.295 0.473,0.295 0.094,0 0.177,0.083 0.177,0.178 0,0.094 0.154,0.343 0.343,0.555 0.343,0.379 0.366,0.379 0.685,0.213 0.178,-0.106 0.402,-0.355 0.497,-0.567 0.095,-0.201 0.248,-0.379 0.33,-0.379 0.226,0 0.746,-0.532 0.746,-0.768 0,-0.13 -0.13,-0.177 -0.532,-0.177 -0.461,0 -0.532,0.035 -0.603,0.295 -0.166,0.639 -0.97,0.674 -1.289,0.06 -0.153,-0.308 -0.248,-0.355 -0.65,-0.355 -0.343,0 -0.473,0.047 -0.473,0.177 z"
       fill="#f687b3"
       id="path12" />
    <path
       d="m 21.21,41.376 c -0.035,0.047 0,0.189 0.095,0.307 0.19,0.272 0.662,0.142 0.662,-0.189 0,-0.166 -0.083,-0.225 -0.343,-0.225 -0.2,0 -0.378,0.048 -0.413,0.107 z m 3.949,0.117 c 0,0.248 0.52,0.721 0.78,0.721 0.095,0 0.19,0.13 0.236,0.284 0.036,0.153 0.201,0.413 0.355,0.555 0.272,0.26 0.32,0.26 0.615,0.107 0.177,-0.107 0.366,-0.343 0.437,-0.568 0.071,-0.248 0.177,-0.378 0.331,-0.378 0.237,0 0.792,-0.544 0.792,-0.78 0,-0.118 -0.165,-0.166 -0.532,-0.166 -0.46,0 -0.555,0.036 -0.65,0.284 -0.236,0.615 -0.946,0.65 -1.182,0.06 -0.13,-0.308 -0.201,-0.344 -0.662,-0.344 -0.437,0 -0.52,0.036 -0.52,0.225 z"
       fill="#f687b3"
       id="path14" />
    <path
       d="m 26.518,41.376 c -0.059,0.118 0.237,0.485 0.402,0.485 0.154,0 0.497,-0.426 0.402,-0.509 -0.118,-0.118 -0.72,-0.094 -0.804,0.024 z m 3.819,0.023 c -0.201,0.13 0.2,0.674 0.555,0.768 0.166,0.036 0.296,0.142 0.296,0.225 0,0.189 0.567,0.886 0.72,0.886 0.213,0 0.58,-0.484 0.58,-0.756 0,-0.178 0.083,-0.32 0.213,-0.355 0.283,-0.094 0.662,-0.733 0.496,-0.84 -0.224,-0.141 -0.65,0.036 -0.768,0.32 -0.083,0.201 -0.237,0.284 -0.532,0.307 -0.343,0.024 -0.45,-0.023 -0.591,-0.283 -0.178,-0.32 -0.662,-0.461 -0.97,-0.272 z"
       fill="#f687b3"
       id="path16" />
    <path
       d="m 31.483,41.388 c -0.07,0.106 0.249,0.473 0.402,0.473 0.154,0 0.414,-0.355 0.331,-0.438 -0.118,-0.106 -0.662,-0.142 -0.733,-0.035 z m -7.601,0.401 c -0.213,0.236 -0.378,0.508 -0.378,0.591 0,0.083 -0.248,0.284 -0.556,0.45 -0.319,0.153 -0.58,0.378 -0.603,0.496 -0.059,0.272 0.272,0.626 0.757,0.804 0.224,0.082 0.402,0.224 0.402,0.33 0,0.107 0.153,0.367 0.343,0.592 0.413,0.496 0.638,0.425 1.016,-0.308 0.154,-0.295 0.402,-0.544 0.698,-0.697 0.65,-0.32 0.768,-0.568 0.484,-0.899 -0.13,-0.141 -0.413,-0.33 -0.614,-0.425 -0.213,-0.083 -0.39,-0.225 -0.39,-0.307 0,-0.095 -0.178,-0.367 -0.39,-0.615 l -0.39,-0.45 z m 0.875,1.194 c 0.473,0.473 0.153,1.123 -0.556,1.123 -0.33,0 -0.697,-0.367 -0.697,-0.686 0,-0.212 0.543,-0.733 0.768,-0.733 0.107,0 0.32,0.13 0.485,0.296 z"
       fill="#f687b3"
       id="path18" />
    <path
       d="m 23.93,43.112 c -0.225,0.225 -0.237,0.296 -0.036,0.568 0.248,0.343 0.721,0.2 0.768,-0.213 0.06,-0.508 -0.378,-0.721 -0.733,-0.355 z m 5.106,-1.287 c -0.189,0.237 -0.33,0.52 -0.33,0.65 0,0.119 -0.084,0.213 -0.202,0.213 -0.118,0 -0.402,0.166 -0.626,0.355 l -0.414,0.343 0.355,0.366 c 0.189,0.201 0.473,0.39 0.614,0.426 0.154,0.047 0.272,0.165 0.272,0.272 0,0.106 0.154,0.378 0.355,0.602 l 0.355,0.414 0.354,-0.39 c 0.19,-0.213 0.355,-0.46 0.355,-0.544 0,-0.094 0.236,-0.307 0.52,-0.472 0.697,-0.414 0.768,-0.639 0.307,-1.04 -0.189,-0.19 -0.437,-0.332 -0.532,-0.332 -0.094,0 -0.177,-0.07 -0.177,-0.154 0,-0.189 -0.674,-1.146 -0.804,-1.146 -0.047,0.012 -0.224,0.2 -0.402,0.437 z m 0.828,1.052 c 0.532,0.367 0.224,1.23 -0.438,1.23 -0.626,0 -0.886,-0.674 -0.437,-1.123 0.343,-0.343 0.508,-0.367 0.875,-0.107 z"
       fill="#f687b3"
       id="path20" />
    <path
       d="m 29.202,43.03 c -0.095,0.06 -0.142,0.249 -0.119,0.438 0.024,0.272 0.107,0.355 0.355,0.378 0.26,0.036 0.343,-0.023 0.402,-0.26 0.118,-0.484 -0.248,-0.804 -0.638,-0.555 z m -10.45,-1.206 c -0.166,0.19 -0.331,0.438 -0.379,0.568 -0.035,0.13 -0.26,0.343 -0.496,0.473 -0.78,0.425 -0.78,0.91 0.012,1.288 0.236,0.118 0.437,0.308 0.484,0.473 0.036,0.154 0.225,0.437 0.414,0.615 l 0.355,0.343 0.236,-0.296 a 3.13,3.13 0 0 0 0.355,-0.591 c 0.059,-0.166 0.307,-0.402 0.544,-0.532 0.827,-0.45 0.827,-0.851 0,-1.277 -0.237,-0.118 -0.438,-0.283 -0.438,-0.354 0,-0.166 -0.59,-1.029 -0.697,-1.029 -0.047,0 -0.225,0.142 -0.39,0.32 z m 0.756,1.183 c 0.438,0.39 0.166,1.217 -0.402,1.217 -0.59,0 -0.898,-0.756 -0.484,-1.206 0.236,-0.26 0.602,-0.272 0.886,-0.011 z"
       fill="#f687b3"
       id="path22" />
    <path
       d="m 18.799,43.148 c -0.095,0.048 -0.142,0.249 -0.118,0.438 0.035,0.295 0.082,0.343 0.39,0.343 0.33,0 0.354,-0.036 0.354,-0.414 0,-0.32 -0.047,-0.426 -0.236,-0.45 -0.13,-0.011 -0.307,0.024 -0.39,0.083 z m 14.824,-1.383 c -0.106,0.142 -0.19,0.414 -0.19,0.591 0,0.213 -0.07,0.343 -0.236,0.39 -0.307,0.095 -0.744,0.721 -0.638,0.91 0.19,0.343 0.58,0.686 0.768,0.686 0.166,0 0.201,0.071 0.154,0.379 -0.035,0.248 0.012,0.472 0.13,0.614 0.166,0.225 0.177,0.225 0.426,0 0.142,-0.118 0.319,-0.366 0.413,-0.544 0.154,-0.307 0.142,-0.366 -0.141,-0.791 -0.296,-0.462 -0.296,-0.473 -0.107,-0.887 0.118,-0.236 0.248,-0.461 0.308,-0.497 0.13,-0.082 -0.142,-0.626 -0.462,-0.91 -0.224,-0.213 -0.236,-0.213 -0.425,0.06 z m -19.387,0.33 -0.32,0.485 0.249,0.307 c 0.307,0.39 0.307,0.863 -0.012,1.265 -0.272,0.355 -0.236,0.52 0.26,1.123 0.225,0.272 0.237,0.272 0.473,0.06 0.19,-0.166 0.237,-0.32 0.19,-0.615 -0.048,-0.237 -0.024,-0.355 0.046,-0.308 0.107,0.06 0.934,-0.733 0.934,-0.91 0,-0.047 -0.212,-0.272 -0.473,-0.496 -0.319,-0.272 -0.472,-0.497 -0.472,-0.698 0,-0.26 -0.308,-0.685 -0.497,-0.685 -0.035,0 -0.2,0.212 -0.378,0.472 z"
       fill="#f687b3"
       id="path24" />
    <path
       d="m 34.51,43.031 c -0.26,0.485 -0.095,1.076 0.319,1.076 0.118,0 0.141,-0.154 0.118,-0.615 -0.036,-0.65 -0.237,-0.85 -0.438,-0.46 z m -20.995,0.247 c -0.142,0.65 0.154,1.04 0.508,0.686 0.178,-0.178 0.178,-0.722 0,-0.899 -0.236,-0.236 -0.425,-0.165 -0.508,0.213 z m 2.802,0.532 c -0.142,0.178 -0.284,0.414 -0.32,0.544 -0.047,0.119 -0.224,0.379 -0.425,0.568 -0.45,0.461 -0.438,0.603 0.07,0.603 0.273,0 0.414,-0.06 0.414,-0.154 0,-0.094 0.107,-0.26 0.237,-0.378 a 0.592,0.592 0 0 1 0.945,0.236 c 0.095,0.249 0.19,0.296 0.592,0.296 0.26,0 0.472,-0.06 0.472,-0.118 0,-0.19 -0.555,-0.71 -0.744,-0.71 -0.095,0 -0.201,-0.118 -0.249,-0.272 -0.035,-0.141 -0.212,-0.413 -0.402,-0.59 l -0.342,-0.332 -0.248,0.308 z m 4.905,0.036 c -0.165,0.178 -0.319,0.426 -0.342,0.556 a 0.356,0.356 0 0 1 -0.272,0.272 c -0.296,0.059 -0.769,0.484 -0.769,0.697 0,0.107 0.166,0.154 0.509,0.154 0.437,0 0.52,-0.036 0.65,-0.355 0.284,-0.614 1.111,-0.579 1.276,0.06 0.06,0.26 0.142,0.295 0.591,0.295 0.284,0 0.52,-0.06 0.52,-0.118 0,-0.201 -0.555,-0.71 -0.768,-0.71 -0.094,0 -0.177,-0.07 -0.177,-0.165 0,-0.201 -0.426,-0.745 -0.698,-0.899 -0.165,-0.082 -0.283,-0.035 -0.52,0.213 z m 5.249,0.083 c -0.2,0.236 -0.366,0.496 -0.366,0.591 0,0.095 -0.095,0.177 -0.213,0.177 -0.237,0 -0.733,0.461 -0.733,0.686 0,0.083 0.189,0.142 0.473,0.142 0.402,0 0.496,-0.047 0.65,-0.355 0.32,-0.614 1.123,-0.579 1.288,0.06 0.071,0.26 0.142,0.295 0.603,0.295 0.379,0 0.532,-0.047 0.532,-0.166 0,-0.248 -0.685,-0.78 -0.886,-0.709 -0.119,0.047 -0.178,0 -0.178,-0.165 0,-0.249 -0.532,-0.97 -0.709,-0.97 -0.047,0 -0.26,0.19 -0.461,0.414 z m 5.083,-0.107 c -0.13,0.165 -0.272,0.402 -0.307,0.532 -0.048,0.118 -0.142,0.224 -0.237,0.224 -0.189,0 -0.792,0.686 -0.72,0.816 0.13,0.2 0.886,-0.024 1.075,-0.307 0.248,-0.379 0.886,-0.343 1.064,0.047 0.082,0.2 0.212,0.272 0.52,0.272 0.378,0 0.39,-0.012 0.224,-0.272 a 1.425,1.425 0 0 0 -0.425,-0.378 c -0.166,-0.071 -0.26,-0.225 -0.26,-0.426 0,-0.26 -0.414,-0.816 -0.615,-0.816 -0.047,0 -0.189,0.142 -0.319,0.308 z"
       fill="#f687b3"
       id="path26" />
    <path
       d="m 21.329,45.123 c -0.296,0.296 -0.225,0.402 0.284,0.402 0.508,0 0.532,-0.024 0.354,-0.367 -0.153,-0.272 -0.39,-0.283 -0.638,-0.035 z m 5.272,-0.047 c -0.26,0.26 -0.154,0.449 0.248,0.449 0.485,0 0.58,-0.083 0.426,-0.367 -0.13,-0.26 -0.461,-0.295 -0.674,-0.082 z m 5.012,0.048 c -0.26,0.26 -0.248,0.283 0.225,0.283 0.461,0 0.544,-0.165 0.19,-0.354 -0.178,-0.083 -0.273,-0.071 -0.415,0.07 z M 16.376,45.123 c -0.201,0.2 -0.06,0.402 0.283,0.402 0.284,0 0.355,-0.047 0.32,-0.213 -0.036,-0.2 -0.45,-0.343 -0.603,-0.19 z m -0.556,0.933 c 0,0.154 1.017,0.178 8.452,0.178 7.436,0 8.452,-0.024 8.452,-0.178 0,-0.153 -1.016,-0.177 -8.452,-0.177 -7.435,0 -8.452,0.024 -8.452,0.177 z m 0.886,1.348 c 0.414,0.827 0.426,0.84 0.887,0.84 0.26,0 0.473,-0.036 0.473,-0.095 0,-0.048 -0.095,-0.402 -0.213,-0.792 l -0.213,-0.71 -0.674,-0.035 -0.685,-0.036 z m 1.478,-0.757 c 0,0.036 0.083,0.414 0.19,0.828 l 0.189,0.768 h 0.52 c 0.284,0 0.52,-0.035 0.52,-0.083 0,-0.035 -0.06,-0.413 -0.13,-0.827 l -0.13,-0.745 h -0.58 c -0.319,0 -0.579,0.024 -0.579,0.06 z m 1.656,0.025 c 0.011,0.06 0.07,0.414 0.153,0.804 0.154,0.698 0.154,0.71 0.591,0.745 0.497,0.047 0.485,0.047 0.367,-1.016 L 20.868,46.59 h -0.509 c -0.283,0 -0.52,0.035 -0.52,0.082 z m 1.583,0.354 c 0.036,0.248 0.071,0.626 0.071,0.827 0,0.378 0.024,0.39 0.473,0.39 h 0.473 v -1.655 h -1.1 z m 1.513,0.354 0.036,0.804 0.508,0.035 0.497,0.036 V 46.588 H 22.9 l 0.035,0.792 z m 1.561,-0.625 c -0.036,0.083 -0.047,0.45 -0.024,0.792 l 0.036,0.639 0.484,0.035 c 0.485,0.036 0.485,0.024 0.556,-0.414 a 5.44,5.44 0 0 0 0.083,-0.839 c 0,-0.366 -0.012,-0.378 -0.532,-0.378 -0.343,0 -0.568,0.059 -0.603,0.165 z m 1.608,0.649 v 0.84 h 0.401 c 0.225,0 0.438,-0.036 0.462,-0.095 0.035,-0.048 0.082,-0.402 0.094,-0.792 l 0.047,-0.71 -0.496,-0.035 -0.508,-0.036 z m 1.489,-0.627 c -0.036,0.107 -0.071,0.473 -0.071,0.828 v 0.638 h 0.461 c 0.26,0 0.497,-0.035 0.52,-0.094 0.024,-0.048 0.083,-0.414 0.13,-0.828 l 0.083,-0.733 h -0.52 c -0.378,0 -0.556,0.06 -0.603,0.19 z m 1.656,-0.083 c -0.048,0.06 -0.107,0.438 -0.154,0.84 l -0.072,0.72 0.45,-0.035 c 0.425,-0.035 0.46,-0.07 0.662,-0.626 0.33,-0.934 0.307,-1.005 -0.296,-1.005 -0.295,0 -0.555,0.047 -0.59,0.106 z m 1.666,-0.024 c -0.071,0.12 -0.438,1.349 -0.438,1.479 0,0.047 0.225,0.094 0.509,0.094 h 0.508 l 0.438,-0.827 0.425,-0.828 h -0.697 c -0.379,0 -0.722,0.036 -0.745,0.083 z m -15.214,2.424 -0.367,0.508 8.95,0.036 c 4.929,0.012 8.972,0 9.007,-0.036 0.035,-0.023 -0.083,-0.271 -0.26,-0.532 L 32.725,48.598 H 16.08 Z m -2.648,1.17 a 1.61,1.61 0 0 0 -0.532,0.272 c -0.107,0.095 -0.508,0.32 -0.887,0.497 -0.579,0.26 -0.662,0.33 -0.484,0.425 0.354,0.201 2.068,0.06 2.588,-0.212 0.438,-0.225 1.005,-0.816 0.887,-0.922 -0.106,-0.095 -1.253,-0.142 -1.572,-0.06 z m 2.317,0.072 c -0.083,0.224 -0.095,2.01 0,2.104 0.024,0.024 0.485,-0.106 1.005,-0.307 0.98,-0.379 1.62,-0.863 1.832,-1.395 0.201,-0.556 0.095,-0.603 -1.383,-0.603 -1.194,0 -1.383,0.023 -1.454,0.2 z m 3.569,-0.022 c -0.047,0.094 -0.035,0.319 0.012,0.496 0.119,0.485 0.887,1.809 1.04,1.809 0.084,0 0.58,-0.426 1.124,-0.934 0.768,-0.733 0.981,-1.005 0.945,-1.218 -0.035,-0.26 -0.07,-0.272 -1.548,-0.307 -1.265,-0.024 -1.513,0 -1.572,0.154 z m 3.653,0.01 c -0.094,0.272 0.083,0.602 0.922,1.631 l 0.745,0.922 0.331,-0.39 c 0.828,-0.97 1.395,-1.809 1.395,-2.069 v -0.283 h -1.655 c -1.395,0 -1.678,0.023 -1.738,0.189 z m 3.925,-0.07 c -0.047,0.07 -0.047,0.248 -0.012,0.402 0.06,0.236 0.32,0.508 1.679,1.737 l 0.378,0.343 0.485,-0.804 c 0.307,-0.52 0.496,-0.98 0.52,-1.276 l 0.024,-0.461 -1.502,-0.036 c -0.98,-0.023 -1.524,0.012 -1.572,0.095 z m 3.783,-10e-4 c -0.142,0.225 0.201,0.946 0.58,1.241 0.319,0.248 1.997,1.005 2.222,1.005 0.153,0 0.236,-1.513 0.094,-1.939 L 33.055,50.135 H 31.72 c -0.792,0 -1.372,0.047 -1.419,0.118 z m 4.031,-0.013 -0.59,0.072 0.377,0.437 c 0.485,0.544 1.23,0.804 2.317,0.804 0.993,0 1.36,-0.154 0.863,-0.343 -0.189,-0.07 -0.354,-0.13 -0.39,-0.13 -0.035,0 -0.33,-0.177 -0.674,-0.39 -0.697,-0.45 -1.075,-0.532 -1.903,-0.45 z"
       fill="#f687b3"
       id="path28" />
    <path
       d="m 8.94,51.909 c -2.246,1.1 -4.326,2.849 -5.213,4.374 -0.236,0.413 -0.437,0.827 -0.437,0.91 0,0.13 4.078,0.154 20.994,0.154 h 20.983 l -0.083,-0.272 c -0.343,-1.1 -1.49,-2.507 -2.825,-3.452 -0.84,-0.58 -2.483,-1.478 -3.287,-1.773 -0.543,-0.201 -0.614,-0.201 -1.123,-0.024 -1.04,0.355 -2.234,0.366 -3.12,0.024 -0.154,-0.06 -0.213,-0.024 -0.213,0.118 0,0.2 -0.012,0.2 -0.733,-0.024 -0.19,-0.059 -0.213,0.024 -0.213,0.544 0,0.721 -0.177,0.851 -0.745,0.567 a 50.025,50.025 0 0 0 -1.288,-0.602 c -0.828,-0.367 -0.934,-0.39 -1.029,-0.213 -0.106,0.189 -0.153,0.177 -0.579,-0.06 l -0.46,-0.26 -0.332,0.674 c -0.52,1.052 -0.484,1.052 -1.17,0.367 -0.331,-0.331 -0.721,-0.686 -0.875,-0.792 -0.26,-0.177 -0.295,-0.166 -0.555,0.165 l -0.272,0.343 -0.379,-0.355 -0.366,-0.342 -0.296,0.343 c -0.153,0.2 -0.46,0.59 -0.662,0.874 l -0.378,0.532 -0.354,-0.46 c -0.201,-0.25 -0.544,-0.651 -0.757,-0.876 l -0.378,-0.425 -0.296,0.354 -0.307,0.355 -0.284,-0.33 c -0.154,-0.178 -0.33,-0.32 -0.39,-0.32 -0.06,0 -0.461,0.343 -0.875,0.756 -0.425,0.414 -0.816,0.722 -0.875,0.686 -0.059,-0.047 -0.248,-0.39 -0.425,-0.768 -0.177,-0.367 -0.39,-0.674 -0.461,-0.674 -0.071,0 -0.284,0.094 -0.485,0.2 -0.319,0.202 -0.354,0.202 -0.46,0.013 -0.095,-0.166 -0.25,-0.13 -1.431,0.39 -0.721,0.319 -1.395,0.555 -1.478,0.532 -0.095,-0.036 -0.154,-0.26 -0.154,-0.591 0,-0.615 -0.106,-0.721 -0.532,-0.52 -0.271,0.118 -0.33,0.118 -0.425,-0.06 -0.095,-0.153 -0.166,-0.165 -0.438,-0.059 -0.177,0.071 -0.768,0.13 -1.323,0.13 -0.84,0.012 -1.112,-0.035 -1.655,-0.283 L 9.839,51.471 Z m -8.228,2.127 c -0.153,0.07 -0.378,0.343 -0.52,0.674 -0.224,0.508 -0.236,0.638 -0.118,1.217 0.118,0.532 0.248,0.745 0.757,1.265 0.72,0.733 1.395,1.029 1.395,0.627 0,-0.048 -0.272,-0.26 -0.591,-0.485 -1.3,-0.875 -1.608,-2.825 -0.461,-2.825 0.78,0 1.099,0.484 1.229,1.891 0.106,1.017 0.118,1.052 0.425,0.981 0.249,-0.07 0.249,-0.118 0.178,-0.957 -0.095,-1.23 -0.497,-2.08 -1.076,-2.33 -0.496,-0.2 -0.816,-0.212 -1.218,-0.058 z m 45.618,0.532 c -0.496,0.461 -0.697,0.993 -0.744,2.069 -0.036,0.59 -0.012,0.65 0.236,0.685 0.237,0.036 0.26,0 0.26,-0.59 0,-1.29 0.438,-1.986 1.242,-1.986 0.295,0 0.472,0.094 0.697,0.366 0.615,0.733 0.213,1.643 -1.017,2.317 -0.579,0.32 -0.744,0.626 -0.354,0.626 0.354,0 1.655,-0.91 1.915,-1.324 0.413,-0.685 0.272,-1.513 -0.39,-2.198 -0.296,-0.308 -0.461,-0.379 -0.875,-0.379 -0.414,0 -0.591,0.071 -0.97,0.414 z"
       fill="#f687b3"
       id="path30" />
    <path
       d="m 1.28,56.874 c 0,0.059 0.142,0.118 0.307,0.118 0.166,0 0.414,0.06 0.556,0.13 0.248,0.118 0.248,0.106 -0.024,-0.118 -0.283,-0.26 -0.84,-0.343 -0.84,-0.13 z m 45.18,0.14 c -0.212,0.213 -0.177,0.39 0.048,0.213 0.095,-0.095 0.378,-0.201 0.615,-0.248 l 0.437,-0.083 -0.473,-0.012 c -0.272,0 -0.544,0.047 -0.626,0.13 z M 0.323,57.548 c -0.071,0.19 -0.107,0.591 -0.071,0.91 0.059,0.65 0.46,1.135 0.957,1.135 0.39,0 1.064,-0.497 1.111,-0.804 0.048,-0.295 -0.153,-0.355 -0.26,-0.083 -0.035,0.095 -0.248,0.26 -0.473,0.379 -0.378,0.177 -0.437,0.177 -0.709,0 -0.355,-0.237 -0.496,-0.828 -0.32,-1.3 0.166,-0.414 0.166,-0.556 0.013,-0.556 -0.071,0 -0.178,0.142 -0.248,0.319 z m 2.612,0.072 c -0.45,0.153 -0.603,0.531 -0.308,0.78 0.237,0.189 43.183,0.189 43.42,0 0.2,-0.178 0.2,-0.65 -0.012,-0.733 -0.083,-0.036 -9.729,-0.095 -21.42,-0.13 C 7.9,57.489 3.265,57.501 2.935,57.619 Z m 42.77,0.46 c 0.035,0.201 -1.041,0.213 -21.362,0.213 -21.893,0 -21.727,0 -21.325,-0.39 0.035,-0.047 9.657,-0.07 21.36,-0.06 20.168,0.036 21.29,0.048 21.326,0.237 z m 2.316,0.07 c 0.012,0.438 -0.047,0.769 -0.154,0.887 -0.248,0.307 -0.862,0.248 -1.194,-0.095 -0.307,-0.319 -0.472,-0.378 -0.472,-0.153 0,0.2 0.733,0.78 1.11,0.874 0.25,0.06 0.391,-0.011 0.722,-0.342 0.355,-0.355 0.414,-0.497 0.414,-0.946 0,-0.639 -0.083,-0.91 -0.296,-0.91 -0.094,0 -0.142,0.212 -0.13,0.685 z M 3.29,58.965 c 0.011,0.792 1.454,2.47 2.908,3.416 1.926,1.242 4.976,2.388 7.506,2.814 7.093,1.182 13.31,1.182 20.38,0 1.17,-0.201 3.83,-0.887 4.527,-1.17 1.325,-0.556 2.081,-0.923 3.795,-1.845 1.135,-0.614 2.577,-2.21 2.79,-3.097 l 0.083,-0.32 H 24.284 C 4.365,58.763 3.29,58.776 3.29,58.965 Z m 42.32,1.631 c 0,1.147 0.047,1.833 0.118,1.833 0.07,0 0.118,-0.686 0.118,-1.833 0,-1.146 -0.047,-1.832 -0.118,-1.832 -0.071,0 -0.119,0.686 -0.119,1.832 z M 2.51,60.125 c 0,0.71 0.011,0.993 0.035,0.614 a 11.92,11.92 0 0 0 0,-1.3 C 2.521,59.096 2.509,59.404 2.509,60.125 Z m 0.307,0.531 c 0,1.5 0.023,1.773 0.177,1.773 0.154,0 0.177,-0.272 0.177,-1.773 0,-1.502 -0.023,-1.774 -0.177,-1.774 -0.154,0 -0.177,0.272 -0.177,1.774 z m 43.194,-0.414 c 0,0.65 0.012,0.899 0.036,0.556 a 9.874,9.874 0 0 0 0,-1.182 c -0.024,-0.307 -0.036,-0.024 -0.036,0.627 z m 0.071,1.477 c 0,0.06 0.06,0.118 0.119,0.118 0.07,0 0.118,-0.059 0.118,-0.118 0,-0.071 -0.047,-0.118 -0.118,-0.118 a 0.118,0.118 0 0 0 -0.119,0.118 z M 1.99,62.133 c 0,0.237 0.058,0.296 0.295,0.296 0.236,0 0.295,-0.06 0.295,-0.296 0,-0.236 -0.059,-0.295 -0.295,-0.295 -0.237,0 -0.296,0.059 -0.296,0.295 z m 43.974,0.059 c 0,0.19 0.083,0.237 0.355,0.237 0.272,0 0.354,-0.048 0.354,-0.237 0,-0.189 -0.082,-0.236 -0.354,-0.236 -0.272,0 -0.355,0.047 -0.355,0.236 z M 1.363,62.75 c -0.13,0.224 -0.213,2.754 -0.095,2.754 0.06,0 0.13,-0.331 0.154,-0.733 0.035,-0.674 0.059,-0.757 0.366,-0.898 0.249,-0.119 0.32,-0.237 0.32,-0.52 0,-0.213 0.082,-0.426 0.212,-0.52 0.178,-0.143 0.13,-0.154 -0.354,-0.166 -0.308,0 -0.58,0.035 -0.603,0.082 z m 1.335,0.035 c 0,0.059 0.107,0.118 0.237,0.118 0.13,0 0.236,-0.06 0.236,-0.118 0,-0.071 -0.106,-0.118 -0.236,-0.118 -0.13,0 -0.237,0.047 -0.237,0.118 z m 42.852,0 c -0.035,0.059 0.036,0.118 0.178,0.118 0.142,0 0.212,-0.06 0.177,-0.118 a 0.223,0.223 0 0 0 -0.177,-0.118 0.222,0.222 0 0 0 -0.178,0.118 z m 0.804,0.045 c 0.118,0.095 0.201,0.308 0.201,0.533 0,0.283 0.071,0.401 0.284,0.496 0.248,0.118 0.296,0.248 0.366,0.946 0.048,0.449 0.119,0.792 0.166,0.768 0.094,-0.059 -0.06,-2.612 -0.166,-2.79 -0.035,-0.059 -0.295,-0.118 -0.567,-0.118 -0.437,0.012 -0.473,0.024 -0.284,0.166 z"
       fill="#f687b3"
       id="path32" />
    <path
       d="m 2.226,63.435 v 0.414 h 1.3 v -0.828 h -1.3 z m 42.911,0.012 v 0.414 l 0.626,-0.036 c 0.603,-0.035 0.615,-0.047 0.65,-0.425 l 0.036,-0.379 H 45.137 Z M 2.226,64.959 c 0,1.277 -0.119,2.435 -0.26,2.435 -0.06,0 -0.071,-0.674 -0.024,-1.655 0.07,-1.501 0.059,-1.655 -0.118,-1.655 -0.272,0 -0.284,0.06 -0.355,1.915 l -0.06,1.632 H 4.294 L 4.259,66.129 C 4.223,64.427 4.176,64.084 3.963,64.084 c -0.118,0 -0.142,0.39 -0.106,1.655 0.035,1.029 0.012,1.655 -0.06,1.655 -0.153,0 -0.271,-1.135 -0.271,-2.435 0,-0.58 -0.047,-0.993 -0.118,-0.993 -0.071,0 -0.119,0.65 -0.119,1.714 0,1.064 -0.047,1.714 -0.118,1.714 -0.07,0 -0.118,-0.626 -0.118,-1.643 0,-0.981 -0.047,-1.679 -0.118,-1.726 -0.142,-0.083 -0.13,-0.177 -0.118,1.797 0.011,1.348 -0.012,1.572 -0.178,1.572 -0.153,0 -0.177,-0.248 -0.177,-1.714 0,-1.064 -0.047,-1.714 -0.118,-1.714 -0.071,0 -0.118,0.414 -0.118,0.993 z"
       fill="#f687b3"
       id="path34" />
    <path
       d="m 44.581,64.214 c -0.07,0.166 -0.154,1.005 -0.177,1.856 l -0.036,1.56 h 2.79 L 47.075,66 c -0.118,-2.389 -0.33,-2.566 -0.402,-0.32 -0.07,2.045 -0.224,1.915 -0.272,-0.236 -0.035,-2.022 -0.26,-1.844 -0.271,0.236 -0.012,1.1 -0.06,1.655 -0.154,1.69 -0.095,0.036 -0.13,-0.46 -0.13,-1.678 0,-1.076 -0.047,-1.726 -0.118,-1.726 -0.071,0 -0.119,0.627 -0.119,1.643 0,0.981 -0.047,1.679 -0.118,1.726 -0.07,0.047 -0.118,-0.508 -0.118,-1.584 0,-1.513 -0.094,-2.08 -0.284,-1.596 -0.035,0.107 -0.07,0.875 -0.07,1.714 0,2.163 -0.225,1.974 -0.26,-0.224 -0.036,-1.442 -0.06,-1.69 -0.178,-1.43 z"
       fill="#f687b3"
       id="path36" />
  </g>
</svg>
